<?xml version="1.0" encoding="UTF-8" standalone="no"?>
<!-- Created with Inkscape (http://www.inkscape.org/) -->

<svg
   xmlns:dc="http://purl.org/dc/elements/1.1/"
   xmlns:cc="http://creativecommons.org/ns#"
   xmlns:rdf="http://www.w3.org/1999/02/22-rdf-syntax-ns#"
   xmlns:svg="http://www.w3.org/2000/svg"
   xmlns="http://www.w3.org/2000/svg"
   xmlns:sodipodi="http://sodipodi.sourceforge.net/DTD/sodipodi-0.dtd"
   xmlns:inkscape="http://www.inkscape.org/namespaces/inkscape"
   width="594.71875"
   height="385.60397"
   id="svg3513"
   version="1.1"
   inkscape:version="0.48.1 r9760"
   sodipodi:docname="b3.pdf">
  <defs
     id="defs3515" />
  <sodipodi:namedview
     id="base"
     pagecolor="#ffffff"
     bordercolor="#666666"
     borderopacity="1.0"
     inkscape:pageopacity="0.0"
     inkscape:pageshadow="2"
     inkscape:zoom="0.98994949"
     inkscape:cx="293.09375"
     inkscape:cy="178.91907"
     inkscape:document-units="px"
     inkscape:current-layer="layer1"
     showgrid="false"
     fit-margin-top="0"
     fit-margin-left="0"
     fit-margin-right="0"
     fit-margin-bottom="0"
     inkscape:window-width="1366"
     inkscape:window-height="711"
     inkscape:window-x="0"
     inkscape:window-y="26"
     inkscape:window-maximized="1" />
  <metadata
     id="metadata3518">
    <rdf:RDF>
      <cc:Work
         rdf:about="">
        <dc:format>image/svg+xml</dc:format>
        <dc:type
           rdf:resource="http://purl.org/dc/dcmitype/StillImage" />
        <dc:title></dc:title>
      </cc:Work>
    </rdf:RDF>
  </metadata>
  <g
     inkscape:label="Layer 1"
     inkscape:groupmode="layer"
     id="layer1"
     transform="translate(-81.90625,-325.67727)">
    <path
       style="fill:none;stroke:#000000;stroke-width:1px;stroke-linecap:butt;stroke-linejoin:miter;stroke-opacity:1"
       d="m 176.7767,332.12342 -54.54824,81.82235 98.99495,0 z"
       id="path3521"
       inkscape:connector-curvature="0" />
    <path
       style="fill:none;stroke:#000000;stroke-width:1px;stroke-linecap:butt;stroke-linejoin:miter;stroke-opacity:1"
       d="m 278.8021,358.38738 1.01016,37.37565"
       id="path3523"
       inkscape:connector-curvature="0" />
    <path
       style="fill:none;stroke:#000000;stroke-width:1px;stroke-linecap:butt;stroke-linejoin:miter;stroke-opacity:1"
       d="m 263.64981,376.57013 36.3655,-4.04061"
       id="path3525"
       inkscape:connector-curvature="0" />
    <path
       style="fill:none;stroke:#000000;stroke-width:1px;stroke-linecap:butt;stroke-linejoin:miter;stroke-opacity:1"
       d="m 558.61436,345.2554 c 0.0718,-2.27251 -12.73044,-14.79936 -26.26397,-18.18274 -34.52884,-8.63222 -73.45757,48.00293 -39.39595,70.71067 44.6191,29.74607 91.49366,-23.00365 58.58885,-60.60915"
       id="path3533"
       inkscape:connector-curvature="0" />
    <path
       style="fill:none;stroke:#000000;stroke-width:1px;stroke-linecap:butt;stroke-linejoin:miter;stroke-opacity:1"
       d="m 558.61436,361.41784 c 8.31553,24.94659 -83.75719,24.57114 -77.78175,4.04061 7.19915,1.94627 8.74539,0.17299 13.13198,-2.0203"
       id="path3535"
       inkscape:connector-curvature="0" />
    <path
       style="fill:none;stroke:#000000;stroke-width:1px;stroke-linecap:butt;stroke-linejoin:miter;stroke-opacity:1"
       d="m 503.05597,360.40769 c 3.29718,-0.648 1.82262,-0.40503 9.09137,-2.02031"
       id="path3537"
       inkscape:connector-curvature="0" />
    <path
       style="fill:none;stroke:#000000;stroke-width:1px;stroke-linecap:butt;stroke-linejoin:miter;stroke-opacity:1"
       d="m 527.29963,358.38738 c 4.39717,0.1914 8.70068,1.28176 13.13198,2.02031"
       id="path3539"
       inkscape:connector-curvature="0" />
    <path
       style="fill:none;stroke:#000000;stroke-width:1px;stroke-linecap:butt;stroke-linejoin:miter;stroke-opacity:1"
       d="m 548.51283,359.39754 c 6.57665,3.15629 -2.97808,-1.70176 7.07107,4.04061"
       id="path3541"
       inkscape:connector-curvature="0" />
    <path
       style="fill:none;stroke:#000000;stroke-width:1px;stroke-linecap:butt;stroke-linejoin:miter;stroke-opacity:1"
       d="m 360.62446,333.63865 -54.54824,81.82235 98.99495,0 z"
       id="path3521-8"
       inkscape:connector-curvature="0" />
    <path
       style="fill:none;stroke:#000000;stroke-width:1px;stroke-linecap:butt;stroke-linejoin:miter;stroke-opacity:1"
       d="m 137.38075,492.2326 -54.548241,81.82235 98.994951,0 z"
       id="path3521-2"
       inkscape:connector-curvature="0" />
    <path
       style="fill:none;stroke:#000000;stroke-width:1px;stroke-linecap:butt;stroke-linejoin:miter;stroke-opacity:1"
       d="m 261.62951,492.2326 -54.54824,81.82235 98.99495,0 z"
       id="path3521-20"
       inkscape:connector-curvature="0" />
    <path
       style="fill:none;stroke:#000000;stroke-width:1px;stroke-linecap:butt;stroke-linejoin:miter;stroke-opacity:1"
       d="m 378.80721,492.2326 -54.54824,81.82235 98.99495,0 z"
       id="path3521-6"
       inkscape:connector-curvature="0" />
    <path
       style="fill:none;stroke:#000000;stroke-width:1px;stroke-linecap:butt;stroke-linejoin:miter;stroke-opacity:1"
       d="m 496.99506,490.21229 -54.54824,81.82235 98.99495,0 z"
       id="path3521-3"
       inkscape:connector-curvature="0" />
    <path
       style="fill:none;stroke:#000000;stroke-width:1px;stroke-linecap:butt;stroke-linejoin:miter;stroke-opacity:1"
       d="m 631.34535,489.20214 -54.54824,81.82235 98.99495,0 z"
       id="path3521-61"
       inkscape:connector-curvature="0" />
    <path
       style="fill:none;stroke:#000000;stroke-width:1px;stroke-linecap:butt;stroke-linejoin:miter;stroke-opacity:1"
       d="m 396.98995,374.54982 c 8.91728,-30.93064 38.28523,16.46416 47.47717,-11.11167"
       id="path3598"
       inkscape:connector-curvature="0" />
    <path
       style="fill:none;stroke:#000000;stroke-width:1px;stroke-linecap:butt;stroke-linejoin:miter;stroke-opacity:1"
       d="m 396.98995,395.76303 c 0.47816,-25.95481 33.47703,4.83776 47.47717,-16.16244"
       id="path3600"
       inkscape:connector-curvature="0" />
    <path
       style="fill:none;stroke:#000000;stroke-width:1px;stroke-linecap:butt;stroke-linejoin:miter;stroke-opacity:1"
       d="m 193.94929,509.91027 c 7.76911,7.94226 7.07107,25.71969 7.07107,32.32488"
       id="path3602"
       inkscape:connector-curvature="0" />
    <path
       style="fill:none;stroke:#000000;stroke-width:1px;stroke-linecap:butt;stroke-linejoin:miter;stroke-opacity:1"
       d="m 169.70563,526.07271 c 1.33805,0.63838 38.55526,-5.07901 44.44671,-6.06092"
       id="path3604"
       inkscape:connector-curvature="0" />
    <path
       style="fill:none;stroke:#000000;stroke-width:1px;stroke-linecap:butt;stroke-linejoin:miter;stroke-opacity:1"
       d="m 315.16759,505.86966 c 6.45778,7.72683 6.52208,17.91923 8.08122,27.27411"
       id="path3606"
       inkscape:connector-curvature="0" />
    <path
       style="fill:none;stroke:#000000;stroke-width:1px;stroke-linecap:butt;stroke-linejoin:miter;stroke-opacity:1"
       d="m 296.98485,520.01179 c 10.93784,1.51179 34.93335,-6.00063 35.35534,-6.06091"
       id="path3608"
       inkscape:connector-curvature="0" />
    <path
       style="fill:none;stroke:#000000;stroke-width:1px;stroke-linecap:butt;stroke-linejoin:miter;stroke-opacity:1"
       d="m 438.4062,508.90011 c 0,8.41794 0,16.83588 0,25.25382"
       id="path3610"
       inkscape:connector-curvature="0" />
    <path
       style="fill:none;stroke:#000000;stroke-width:1px;stroke-linecap:butt;stroke-linejoin:miter;stroke-opacity:1"
       d="m 423.25392,520.01179 c 8.65335,2.26393 24.78232,-0.42649 28.28427,-1.01015"
       id="path3612"
       inkscape:connector-curvature="0" />
    <path
       style="fill:none;stroke:#000000;stroke-width:1px;stroke-linecap:butt;stroke-linejoin:miter;stroke-opacity:1"
       d="m 537.40115,521.02194 c -0.97774,-6.29029 13.157,2.1845 32.32489,-1.01015"
       id="path3614"
       inkscape:connector-curvature="0" />
    <path
       style="fill:none;stroke:#000000;stroke-width:1px;stroke-linecap:butt;stroke-linejoin:miter;stroke-opacity:1"
       d="m 542.45192,533.14377 c 8.96988,0.51858 16.53688,-2.0203 25.25381,-2.0203"
       id="path3616"
       inkscape:connector-curvature="0" />
    <path
       style="fill:none;stroke:#000000;stroke-width:1px;stroke-linecap:butt;stroke-linejoin:miter;stroke-opacity:1"
       d="m 575.78695,571.52957 c 1.52986,0.62032 7.62906,-3.30945 15.15229,-7.07107"
       id="path3618"
       inkscape:connector-curvature="0" />
    <path
       style="fill:none;stroke:#000000;stroke-width:1px;stroke-linecap:butt;stroke-linejoin:miter;stroke-opacity:1"
       d="m 597.00015,561.42805 c 3.17262,-0.66015 2.79344,-1.2246 10.10153,-7.07107"
       id="path3620"
       inkscape:connector-curvature="0" />
    <path
       style="fill:none;stroke:#000000;stroke-width:1px;stroke-linecap:butt;stroke-linejoin:miter;stroke-opacity:1"
       d="m 617.20321,550.31637 c 5.45538,-6.7502 -3.20334,3.20334 6.06091,-6.06092"
       id="path3622"
       inkscape:connector-curvature="0" />
    <path
       style="fill:none;stroke:#000000;stroke-width:1px;stroke-linecap:butt;stroke-linejoin:miter;stroke-opacity:1"
       d="m 635.38595,547.28591 c 3.71461,6.33823 5.22979,2.90544 9.09137,5.05076"
       id="path3624"
       inkscape:connector-curvature="0" />
    <path
       style="fill:none;stroke:#000000;stroke-width:1px;stroke-linecap:butt;stroke-linejoin:miter;stroke-opacity:1"
       d="m 654.57885,555.36713 c 6.70575,3.47225 -3.80484,-1.90242 8.08122,4.04061"
       id="path3626"
       inkscape:connector-curvature="0" />
    <path
       style="fill:none;stroke:#000000;stroke-width:1px;stroke-linecap:butt;stroke-linejoin:miter;stroke-opacity:1"
       d="m 671.75144,564.4585 c 4.11029,3.42904 1.62232,3.78542 3.03046,7.07107"
       id="path3628"
       inkscape:connector-curvature="0" />
    <path
       style="fill:none;stroke:#000000;stroke-width:1px;stroke-linecap:butt;stroke-linejoin:miter;stroke-opacity:1"
       d="m 630.33519,490.71737 c -1.70187,3.30211 -0.66645,6.66448 -1.01015,10.10152"
       id="path3630"
       inkscape:connector-curvature="0" />
    <path
       style="fill:none;stroke:#000000;stroke-width:1px;stroke-linecap:butt;stroke-linejoin:miter;stroke-opacity:1"
       d="m 628.31488,512.94072 c 0,2.77654 0,2.5509 0,12.12183"
       id="path3632"
       inkscape:connector-curvature="0" />
    <path
       style="fill:none;stroke:#000000;stroke-width:1px;stroke-linecap:butt;stroke-linejoin:miter;stroke-opacity:1"
       d="m 629.32504,537.18438 c -0.38573,4.25754 0,5.54746 0,8.08122"
       id="path3634"
       inkscape:connector-curvature="0" />
    <path
       style="fill:none;stroke:#000000;stroke-width:1px;stroke-linecap:butt;stroke-linejoin:miter;stroke-opacity:1"
       d="m 131.31983,675.57528 36.36549,-51.51778 37.37565,49.49748 z"
       id="path3640"
       inkscape:connector-curvature="0" />
    <path
       style="fill:none;stroke:#000000;stroke-width:1px;stroke-linecap:butt;stroke-linejoin:miter;stroke-opacity:1"
       d="m 185.86807,646.28086 54.54824,-3.03046"
       id="path3642"
       inkscape:connector-curvature="0" />
    <path
       style="fill:none;stroke:#000000;stroke-width:1px;stroke-linecap:butt;stroke-linejoin:miter;stroke-opacity:1"
       d="m 236.3757,642.24025 -10.10153,67.68022 -40.4061,-61.61931"
       id="path3644"
       inkscape:connector-curvature="0" />
    <path
       style="fill:none;stroke:#ff0000;stroke-width:1px;stroke-linecap:butt;stroke-linejoin:miter;stroke-opacity:1"
       d="M 119.198,620.01689 279.81226,702.8494"
       id="path3646"
       inkscape:connector-curvature="0" />
    <path
       style="fill:none;stroke:#ff0000;stroke-width:1px;stroke-linecap:butt;stroke-linejoin:miter;stroke-opacity:1"
       d="M 112.12693,706.89001 289.91378,619.00674"
       id="path3648"
       inkscape:connector-curvature="0" />
    <path
       style="fill:none;stroke:#000000;stroke-width:1px;stroke-linecap:butt;stroke-linejoin:miter;stroke-opacity:1"
       d="m 167.68532,403.84425 0,28.28427"
       id="path3650"
       inkscape:connector-curvature="0" />
    <path
       style="fill:none;stroke:#000000;stroke-width:1px;stroke-linecap:butt;stroke-linejoin:miter;stroke-opacity:1"
       d="m 358.60415,404.8544 1.01016,25.25381"
       id="path3652"
       inkscape:connector-curvature="0" />
    <path
       style="fill:none;stroke:#000000;stroke-width:1px;stroke-linecap:butt;stroke-linejoin:miter;stroke-opacity:1"
       d="m 183.84776,369.49906 24.24366,-11.11168"
       id="path3654"
       inkscape:connector-curvature="0" />
    <path
       style="fill:none;stroke:#000000;stroke-width:1px;stroke-linecap:butt;stroke-linejoin:miter;stroke-opacity:1"
       d="m 186.87822,381.62089 28.28427,-14.14213"
       id="path3656"
       inkscape:connector-curvature="0" />
    <path
       style="fill:none;stroke:#000000;stroke-width:1px;stroke-linecap:butt;stroke-linejoin:miter;stroke-opacity:1"
       d="m 367.69553,367.47876 22.22335,-10.10153"
       id="path3658"
       inkscape:connector-curvature="0" />
    <path
       style="fill:none;stroke:#000000;stroke-width:1px;stroke-linecap:butt;stroke-linejoin:miter;stroke-opacity:1"
       d="m 366.68537,375.55998 26.26397,-10.10153"
       id="path3660"
       inkscape:connector-curvature="0" />
    <path
       style="fill:none;stroke:#000000;stroke-width:1px;stroke-linecap:butt;stroke-linejoin:miter;stroke-opacity:1"
       d="m 128.28937,371.51937 24.24366,15.15229"
       id="path3662"
       inkscape:connector-curvature="0" />
    <path
       style="fill:none;stroke:#000000;stroke-width:1px;stroke-linecap:butt;stroke-linejoin:miter;stroke-opacity:1"
       d="m 138.3909,364.4483 20.20305,19.1929"
       id="path3664"
       inkscape:connector-curvature="0" />
    <path
       style="fill:none;stroke:#000000;stroke-width:1px;stroke-linecap:butt;stroke-linejoin:miter;stroke-opacity:1"
       d="m 146.47212,357.37723 18.18274,17.17259"
       id="path3666"
       inkscape:connector-curvature="0" />
    <path
       style="fill:none;stroke:#000000;stroke-width:1px;stroke-linecap:butt;stroke-linejoin:miter;stroke-opacity:1"
       d="m 330.31988,361.41784 18.18275,15.15229"
       id="path3668"
       inkscape:connector-curvature="0" />
    <path
       style="fill:none;stroke:#000000;stroke-width:1px;stroke-linecap:butt;stroke-linejoin:miter;stroke-opacity:1"
       d="m 322.23866,370.50921 24.24366,12.12184"
       id="path3670"
       inkscape:connector-curvature="0" />
    <path
       style="fill:none;stroke:#000000;stroke-width:1px;stroke-linecap:butt;stroke-linejoin:miter;stroke-opacity:1"
       d="m 317.1879,381.62089 20.20305,11.11168"
       id="path3672"
       inkscape:connector-curvature="0" />
    <path
       style="fill:none;stroke:#000000;stroke-width:1px;stroke-linecap:butt;stroke-linejoin:miter;stroke-opacity:1"
       d="m 531.34024,257.3146 c -39.96454,-16.50397 14.25129,43.80966 -20.20305,32.32488"
       id="path3693"
       inkscape:connector-curvature="0"
       transform="translate(81.90625,325.67727)" />
    <path
       style="fill:none;stroke:#000000;stroke-width:1px;stroke-linecap:butt;stroke-linejoin:miter;stroke-opacity:1"
       d="m 569.72604,258.32475 c -47.5384,-17.56183 -1.24261,42.21931 -36.3655,36.36549"
       id="path3695"
       inkscape:connector-curvature="0"
       transform="translate(81.90625,325.67727)" />
    <path
       style="fill:none;stroke:#000000;stroke-width:1px;stroke-linecap:butt;stroke-linejoin:miter;stroke-opacity:1"
       d="m 524.26917,318.93391 c 2.01428,-23.15041 -37.63945,-20.35232 -53.53808,-17.1726 -45.05202,9.0104 -18.42168,59.85608 11.11167,69.70053 52.43516,17.47838 65.34541,-45.52717 28.28428,-68.69038"
       id="path3697"
       inkscape:connector-curvature="0"
       transform="translate(81.90625,325.67727)" />
    <path
       style="fill:none;stroke:#000000;stroke-width:1px;stroke-linecap:butt;stroke-linejoin:miter;stroke-opacity:1"
       d="m 451.53819,336.1065 c 15.46774,20.14415 73.71496,15.30934 76.77159,-3.03046"
       id="path3699"
       inkscape:connector-curvature="0"
       transform="translate(81.90625,325.67727)" />
    <path
       style="fill:none;stroke:#000000;stroke-width:1px;stroke-linecap:butt;stroke-linejoin:miter;stroke-opacity:1"
       d="m 447.49758,336.1065 c 1.27371,-0.9297 7.42681,-6.51622 18.18274,-10.10153"
       id="path3701"
       inkscape:connector-curvature="0"
       transform="translate(81.90625,325.67727)" />
    <path
       style="fill:none;stroke:#000000;stroke-width:1px;stroke-linecap:butt;stroke-linejoin:miter;stroke-opacity:1"
       d="m 470.73109,326.00497 c 2.37511,-0.39432 3.18991,-2.4988 12.12183,-1.01015"
       id="path3703"
       inkscape:connector-curvature="0"
       transform="translate(81.90625,325.67727)" />
    <path
       style="fill:none;stroke:#000000;stroke-width:1px;stroke-linecap:butt;stroke-linejoin:miter;stroke-opacity:1"
       d="m 491.94429,322.97452 c 5.73249,1.49219 10.20757,2.0203 16.16244,2.0203"
       id="path3705"
       inkscape:connector-curvature="0"
       transform="translate(81.90625,325.67727)" />
    <path
       style="fill:none;stroke:#000000;stroke-width:1px;stroke-linecap:butt;stroke-linejoin:miter;stroke-opacity:1"
       d="m 516.18795,324.99482 c 4.56711,1.69392 5.61976,2.49767 9.09137,4.04061"
       id="path3707"
       inkscape:connector-curvature="0"
       transform="translate(81.90625,325.67727)" />
    <path
       style="fill:none;stroke:#0000ff;stroke-width:1px;stroke-linecap:butt;stroke-linejoin:miter;stroke-opacity:1"
       d="m 529.31993,331.05574 c 7.21368,-2.5234 2.23422,3.7237 3.03046,5.05076"
       id="path3709"
       inkscape:connector-curvature="0"
       transform="translate(81.90625,325.67727)" />
    <path
       style="fill:none;stroke:#0000ff;stroke-width:1px;stroke-linecap:butt;stroke-linejoin:miter;stroke-opacity:1"
       d="m 484.87322,299.74101 c -13.84295,0.70538 -7.07107,76.71707 -7.07107,71.72083 0,-0.50963 6.54439,-0.48348 7.07107,-1.01015 5.48838,-5.48838 19.54934,-8.43767 25.25382,-14.14214 6.43297,-6.43298 21.2132,-26.2702 21.2132,-17.17259 0,1.56874 -28.91397,-17.45464 -46.46702,-39.39595 z"
       id="path3711"
       inkscape:connector-curvature="0"
       transform="translate(81.90625,325.67727)" />
  </g>
</svg>
