<?xml version="1.0" encoding="UTF-8" standalone="no"?>
<!-- Created with Inkscape (http://www.inkscape.org/) -->

<svg
   xmlns:dc="http://purl.org/dc/elements/1.1/"
   xmlns:cc="http://creativecommons.org/ns#"
   xmlns:rdf="http://www.w3.org/1999/02/22-rdf-syntax-ns#"
   xmlns:svg="http://www.w3.org/2000/svg"
   xmlns="http://www.w3.org/2000/svg"
   xmlns:sodipodi="http://sodipodi.sourceforge.net/DTD/sodipodi-0.dtd"
   xmlns:inkscape="http://www.inkscape.org/namespaces/inkscape"
   width="503.11389"
   height="352.8125"
   id="svg3779"
   version="1.1"
   inkscape:version="0.48.1 r9760"
   sodipodi:docname="New document 17">
  <defs
     id="defs3781" />
  <sodipodi:namedview
     id="base"
     pagecolor="#ffffff"
     bordercolor="#666666"
     borderopacity="1.0"
     inkscape:pageopacity="0.0"
     inkscape:pageshadow="2"
     inkscape:zoom="0.98994949"
     inkscape:cx="235.52015"
     inkscape:cy="199.29407"
     inkscape:document-units="px"
     inkscape:current-layer="layer1"
     showgrid="false"
     fit-margin-top="0"
     fit-margin-left="0"
     fit-margin-right="0"
     fit-margin-bottom="0"
     inkscape:window-width="1366"
     inkscape:window-height="711"
     inkscape:window-x="0"
     inkscape:window-y="26"
     inkscape:window-maximized="1" />
  <metadata
     id="metadata3784">
    <rdf:RDF>
      <cc:Work
         rdf:about="">
        <dc:format>image/svg+xml</dc:format>
        <dc:type
           rdf:resource="http://purl.org/dc/dcmitype/StillImage" />
        <dc:title></dc:title>
      </cc:Work>
    </rdf:RDF>
  </metadata>
  <g
     inkscape:label="Layer 1"
     inkscape:groupmode="layer"
     id="layer1"
     transform="translate(-139.47985,-378.84375)">
    <path
       style="fill:none;stroke:#000000;stroke-width:1px;stroke-linecap:butt;stroke-linejoin:miter;stroke-opacity:1"
       d="m 219.2031,399.80364 60.60916,24.24366 36.36549,-44.44671 52.52793,53.53808 -83.84266,74.75129 -60.60915,-41.41625 z"
       id="path3787"
       inkscape:connector-curvature="0" />
    <path
       style="fill:none;stroke:#000000;stroke-width:1px;stroke-linecap:butt;stroke-linejoin:miter;stroke-opacity:1"
       d="m 245.46707,428.08791 -2.02031,-17.17259 14.14214,-8.08122"
       id="path3793"
       inkscape:connector-curvature="0" />
    <path
       style="fill:none;stroke:#000000;stroke-width:1px;stroke-linecap:butt;stroke-linejoin:miter;stroke-opacity:1"
       d="m 280.82241,401.82394 23.23351,-7.07106 1.01015,19.19289"
       id="path3795"
       inkscape:connector-curvature="0" />
    <path
       style="fill:none;stroke:#0000ff;stroke-width:1px;stroke-linecap:butt;stroke-linejoin:miter;stroke-opacity:1"
       d="m 224.25387,463.44325 54.54823,-39.39595 5.05077,83.84266"
       id="path3797"
       inkscape:connector-curvature="0" />
    <path
       style="fill:none;stroke:#0000ff;stroke-width:1px;stroke-linecap:butt;stroke-linejoin:miter;stroke-opacity:1"
       d="M 317.1879,382.63105 286.88332,507.88996"
       id="path3799"
       inkscape:connector-curvature="0" />
    <path
       style="fill:none;stroke:#000000;stroke-width:1px;stroke-linecap:butt;stroke-linejoin:miter;stroke-opacity:1"
       d="m 384.86812,446.27066 c 18.4945,-35.08245 47.98317,18.93896 68.69037,-12.12184"
       id="path3803"
       inkscape:connector-curvature="0" />
    <path
       style="fill:none;stroke:#000000;stroke-width:1px;stroke-linecap:butt;stroke-linejoin:miter;stroke-opacity:1"
       d="m 425.27422,429.09806 c -0.60937,3.94225 24.93821,2.24127 26.26397,2.02031 0.63429,12.27093 -9.91681,28.05337 -10.10153,28.28427"
       id="path3805"
       inkscape:connector-curvature="0" />
    <path
       style="fill:none;stroke:#000000;stroke-width:1px;stroke-linecap:butt;stroke-linejoin:miter;stroke-opacity:1"
       d="m 502.04582,407.88486 11.11167,61.6193 61.61931,28.28428"
       id="path3807"
       inkscape:connector-curvature="0" />
    <path
       style="fill:none;stroke:#000000;stroke-width:1px;stroke-linecap:butt;stroke-linejoin:miter;stroke-opacity:1"
       d="m 573.76665,497.78844 67.68022,-46.46702 -136.3706,-41.41626"
       id="path3811"
       inkscape:connector-curvature="0" />
    <path
       style="fill:none;stroke:#000000;stroke-width:1px;stroke-linecap:butt;stroke-linejoin:miter;stroke-opacity:1"
       d="m 373.75644,528.09301 3.03046,58.58885 71.72083,1.01015 0,-62.62946 z"
       id="path3813"
       inkscape:connector-curvature="0" />
    <path
       style="fill:none;stroke:#000000;stroke-width:1px;stroke-linecap:butt;stroke-linejoin:miter;stroke-opacity:1"
       d="m 375.77675,543.2453 c 6.40202,2.71142 17.23815,0.61679 20.20305,-17.17259"
       id="path3815"
       inkscape:connector-curvature="0" />
    <path
       style="fill:none;stroke:#000000;stroke-width:1px;stroke-linecap:butt;stroke-linejoin:miter;stroke-opacity:1"
       d="m 426.28437,526.07271 c 3.50346,10.58949 13.90629,13.33965 21.21321,12.12183"
       id="path3817"
       inkscape:connector-curvature="0" />
    <path
       style="fill:none;stroke:#000000;stroke-width:1px;stroke-linecap:butt;stroke-linejoin:miter;stroke-opacity:1"
       d="m 449.51788,571.52957 c -10.4422,1.49049 -15.52591,6.28233 -17.17259,16.16244"
       id="path3819"
       inkscape:connector-curvature="0" />
    <path
       style="fill:none;stroke:#000000;stroke-width:1px;stroke-linecap:butt;stroke-linejoin:miter;stroke-opacity:1"
       d="m 375.77675,573.54988 c 12.11328,-5.95392 20.21223,8.59777 22.22335,11.11167"
       id="path3821"
       inkscape:connector-curvature="0" />
    <path
       style="fill:none;stroke:#000000;stroke-width:1px;stroke-linecap:butt;stroke-linejoin:miter;stroke-opacity:1"
       d="m 253.54829,617.99659 66.67007,21.2132 73.74113,-29.29442"
       id="path3823"
       inkscape:connector-curvature="0" />
    <path
       style="fill:none;stroke:#000000;stroke-width:1px;stroke-linecap:butt;stroke-linejoin:miter;stroke-opacity:1"
       d="m 357.594,610.92552 -15.15229,19.1929 27.27412,13.13198"
       id="path3825"
       inkscape:connector-curvature="0" />
    <path
       style="fill:none;stroke:#000000;stroke-width:1px;stroke-linecap:butt;stroke-linejoin:miter;stroke-opacity:1"
       d="m 285.87317,619.00674 -14.14214,5.05076 8.08123,26.26397"
       id="path3827"
       inkscape:connector-curvature="0" />
    <path
       style="fill:none;stroke:#000000;stroke-width:1px;stroke-linecap:butt;stroke-linejoin:miter;stroke-opacity:1"
       d="m 407.09148,632.13872 c 14.46866,-16.80586 33.41766,3.69012 49.49747,1.01016"
       id="path3829"
       inkscape:connector-curvature="0" />
    <path
       style="fill:none;stroke:#000000;stroke-width:1px;stroke-linecap:butt;stroke-linejoin:miter;stroke-opacity:1"
       d="m 443.45697,619.00674 9.09137,12.12183 -7.07107,18.18275"
       id="path3835"
       inkscape:connector-curvature="0" />
    <path
       style="fill:none;stroke:#000000;stroke-width:1px;stroke-linecap:butt;stroke-linejoin:miter;stroke-opacity:1"
       d="m 474.7717,632.13872 89.90357,-5.05076"
       id="path3837"
       inkscape:connector-curvature="0" />
    <path
       style="fill:none;stroke:#000000;stroke-width:1px;stroke-linecap:butt;stroke-linejoin:miter;stroke-opacity:1"
       d="m 532.35039,619.00674 -18.18274,11.11168 16.16244,15.15229"
       id="path3839"
       inkscape:connector-curvature="0" />
    <path
       style="fill:none;stroke:#000000;stroke-width:1px;stroke-linecap:butt;stroke-linejoin:miter;stroke-opacity:1"
       d="m 246.47722,704.86971 c 16.5201,-42.49174 56.11951,-7.74499 57.5787,1.01015 -11.97289,14.96609 -45.8093,16.73483 -57.5787,-1.01015 z"
       id="path3841"
       inkscape:connector-curvature="0" />
    <path
       style="fill:none;stroke:#000000;stroke-width:1px;stroke-linecap:butt;stroke-linejoin:miter;stroke-opacity:1"
       d="m 333.35034,688.70727 -2.02031,42.4264 52.52794,-2.0203 4.04061,-43.43656 z"
       id="path3849"
       inkscape:connector-curvature="0" />
    <path
       style="fill:none;stroke:#000000;stroke-width:1px;stroke-linecap:butt;stroke-linejoin:miter;stroke-opacity:1"
       d="m 146.47212,449.30111 c 30.85412,-18.9055 19.1929,-42.8741 19.1929,4.04061"
       id="path3851"
       inkscape:connector-curvature="0" />
    <path
       style="fill:none;stroke:#000000;stroke-width:1px;stroke-linecap:butt;stroke-linejoin:miter;stroke-opacity:1"
       d="m 179.80715,422.02699 c -8.05644,-8.37872 -16.71476,-6.21352 -26.26396,-3.03045 -28.95075,9.65024 -6.4932,50.315 20.20305,41.41625 29.77653,-9.92551 24.77717,-37.13805 -9.09138,-39.39595"
       id="path3853"
       inkscape:connector-curvature="0" />
    <path
       style="fill:none;stroke:#000000;stroke-width:1px;stroke-linecap:butt;stroke-linejoin:miter;stroke-opacity:1"
       d="m 286.88332,540.21484 c 23.37538,-10.07132 41.38427,2.05229 20.20305,23.23351 -2.07142,2.07143 -25.81537,-1.81191 15.15229,4.04061"
       id="path3855"
       inkscape:connector-curvature="0" />
    <path
       style="fill:none;stroke:#000000;stroke-width:1px;stroke-linecap:butt;stroke-linejoin:miter;stroke-opacity:1"
       d="m 334.36049,542.23515 c -0.20406,-2.75794 -10.40776,-10.68316 -24.24366,-14.14214 -26.89863,-6.72466 -64.10009,25.67571 -27.27412,40.4061 30.27316,12.10927 82.80237,-6.07766 37.37565,-31.31473"
       id="path3857"
       inkscape:connector-curvature="0" />
    <path
       style="fill:none;stroke:#000000;stroke-width:1px;stroke-linecap:butt;stroke-linejoin:miter;stroke-opacity:1"
       d="m 200.0102,612.94583 c 4.6041,-3.62733 9.39794,-7.07107 15.15229,-7.07107 26.3844,0 3.03046,13.02025 3.03046,18.18274 0,3.55833 29.29271,0.003 21.2132,16.16244 -5.07942,10.15885 -27.41626,1.92555 -33.33503,-2.0203"
       id="path3859"
       inkscape:connector-curvature="0" />
    <path
       style="fill:none;stroke:#000000;stroke-width:1px;stroke-linecap:butt;stroke-linejoin:miter;stroke-opacity:1"
       d="m 242.43661,605.87476 c -1.00218,-3.98041 -26.9498,-17.72552 -44.44671,-6.06092 -30.29425,20.19617 12.57345,61.13205 38.3858,52.52793 36.94527,-12.31509 13.5119,-49.45948 -17.1726,-52.52793"
       id="path3861"
       inkscape:connector-curvature="0" />
    <path
       style="fill:none;stroke:#000000;stroke-width:1px;stroke-linecap:butt;stroke-linejoin:miter;stroke-opacity:1"
       d="m 191.92898,677.59559 c -5.49114,17.92738 3.61264,25.73319 20.20305,20.20305"
       id="path3863"
       inkscape:connector-curvature="0" />
    <path
       style="fill:none;stroke:#000000;stroke-width:1px;stroke-linecap:butt;stroke-linejoin:miter;stroke-opacity:1"
       d="m 206.07112,682.64635 c 2.92212,9.90798 4.04061,25.25858 4.04061,32.32488"
       id="path3865"
       inkscape:connector-curvature="0" />
    <path
       style="fill:none;stroke:#000000;stroke-width:1px;stroke-linecap:butt;stroke-linejoin:miter;stroke-opacity:1"
       d="m 220.21325,678.60574 c -0.18798,-4.15022 -13.15112,-9.58688 -26.26396,-3.03046 -34.64714,17.32357 -6.1258,55.59083 20.20305,42.42641 20.28389,-10.14194 14.3719,-41.54632 -9.09137,-45.45686"
       id="path3867"
       inkscape:connector-curvature="0" />
  </g>
</svg>
