<?xml version="1.0" encoding="UTF-8" standalone="no"?>
<!-- Created with Inkscape (http://www.inkscape.org/) -->

<svg
   xmlns:dc="http://purl.org/dc/elements/1.1/"
   xmlns:cc="http://creativecommons.org/ns#"
   xmlns:rdf="http://www.w3.org/1999/02/22-rdf-syntax-ns#"
   xmlns:svg="http://www.w3.org/2000/svg"
   xmlns="http://www.w3.org/2000/svg"
   xmlns:sodipodi="http://sodipodi.sourceforge.net/DTD/sodipodi-0.dtd"
   xmlns:inkscape="http://www.inkscape.org/namespaces/inkscape"
   width="349.76556"
   height="99.841881"
   id="svg3907"
   version="1.1"
   inkscape:version="0.48.1 r9760"
   sodipodi:docname="b5.pdf">
  <defs
     id="defs3909" />
  <sodipodi:namedview
     id="base"
     pagecolor="#ffffff"
     bordercolor="#666666"
     borderopacity="1.0"
     inkscape:pageopacity="0.0"
     inkscape:pageshadow="2"
     inkscape:zoom="0.98994949"
     inkscape:cx="296.79578"
     inkscape:cy="3.5297776"
     inkscape:document-units="px"
     inkscape:current-layer="layer1"
     showgrid="false"
     fit-margin-top="0"
     fit-margin-left="0"
     fit-margin-right="0"
     fit-margin-bottom="0"
     inkscape:window-width="1366"
     inkscape:window-height="711"
     inkscape:window-x="0"
     inkscape:window-y="26"
     inkscape:window-maximized="1" />
  <metadata
     id="metadata3912">
    <rdf:RDF>
      <cc:Work
         rdf:about="">
        <dc:format>image/svg+xml</dc:format>
        <dc:type
           rdf:resource="http://purl.org/dc/dcmitype/StillImage" />
        <dc:title></dc:title>
      </cc:Work>
    </rdf:RDF>
  </metadata>
  <g
     inkscape:label="Layer 1"
     inkscape:groupmode="layer"
     id="layer1"
     transform="translate(-78.204225,-436.05008)">
    <path
       style="fill:none;stroke:#000000;stroke-width:1px;stroke-linecap:butt;stroke-linejoin:miter;stroke-opacity:1"
       d="m 187.88837,459.40264 c -17.27002,-40.7356 -120.943344,-24.15398 -108.086319,27.27412 15.750817,63.00326 94.798859,35.93816 114.147239,26.26397 6.54297,-3.27149 59.39965,17.44285 70.71068,21.2132 24.39941,8.13314 37.13989,-26.26397 46.46701,-26.26397 6.07343,1.26498 7.53576,0.63581 16.16244,0 9.82908,0 32.93953,5.6654 39.39595,12.12183 15.07924,15.07924 49.96294,1.08939 58.58885,-16.16244 11.27278,-22.54555 -23.66006,-44.15491 -36.36549,-50.50763 -31.63809,-15.81904 -66.02592,8.7693 -88.89342,20.20305 -4.50827,2.25414 -31.23201,-27.23275 -49.49748,-27.27411 -20.8181,-0.0471 -30.00036,22.78318 -64.64976,12.12183"
       id="path3919"
       inkscape:connector-curvature="0"
       sodipodi:nodetypes="csssccsssssc" />
    <path
       style="fill:none;stroke:#000000;stroke-width:1px;stroke-linecap:butt;stroke-linejoin:miter;stroke-opacity:1"
       d="m 107.07617,470.51432 c 2.76845,24.52307 67.31962,20.50991 52.52793,2.0203"
       id="path3921"
       inkscape:connector-curvature="0" />
    <path
       style="fill:none;stroke:#000000;stroke-width:1px;stroke-linecap:butt;stroke-linejoin:miter;stroke-opacity:1"
       d="m 116.16754,487.68691 c -4.26983,-8.64956 33.22427,-25.58611 40.4061,-4.04061"
       id="path3923"
       inkscape:connector-curvature="0" />
    <path
       style="fill:none;stroke:#000000;stroke-width:1px;stroke-linecap:butt;stroke-linejoin:miter;stroke-opacity:1"
       d="m 214.15234,475.56508 c -4.50587,34.9847 59.81448,24.21401 43.43656,11.11168"
       id="path3925"
       inkscape:connector-curvature="0" />
    <path
       style="fill:none;stroke:#000000;stroke-width:1px;stroke-linecap:butt;stroke-linejoin:miter;stroke-opacity:1"
       d="m 219.2031,494.75798 c 3.619,-8.25392 24.74252,-12.53087 40.4061,0"
       id="path3927"
       inkscape:connector-curvature="0" />
    <path
       style="fill:none;stroke:#000000;stroke-width:1px;stroke-linecap:butt;stroke-linejoin:miter;stroke-opacity:1"
       d="m 340.42141,477.58538 c 4.51106,28.76765 68.48211,18.62223 46.46701,1.01016"
       id="path3929"
       inkscape:connector-curvature="0" />
    <path
       style="fill:none;stroke:#000000;stroke-width:1px;stroke-linecap:butt;stroke-linejoin:miter;stroke-opacity:1"
       d="m 347.49248,490.71737 c 15.79978,-6.37946 28.53966,-9.52975 39.39594,4.04061"
       id="path3931"
       inkscape:connector-curvature="0" />
    <path
       style="fill:none;stroke:#0000ff;stroke-width:1px;stroke-linecap:butt;stroke-linejoin:miter;stroke-opacity:1"
       d="M 27.274119,79.63883 C 25.93456,61.807237 41.538923,49.92591 42.426407,49.334254"
       id="path3952"
       inkscape:connector-curvature="0"
       transform="translate(78.204225,436.05008)" />
    <path
       style="fill:none;stroke:#0000ff;stroke-width:1px;stroke-linecap:butt;stroke-linejoin:miter;stroke-opacity:1"
       d="m 38.385797,50.344406 c 13.881609,9.1713 24.039546,23.845853 20.203051,35.355339 6.382361,-12.86 8.348386,-28.492926 6.060915,-35.355339 16.305994,12.015069 24.985733,21.625026 26.263966,29.294424"
       id="path3954"
       inkscape:connector-curvature="0"
       transform="translate(78.204225,436.05008)" />
  </g>
</svg>
