<?xml version="1.0" encoding="UTF-8" standalone="no"?>
<!-- Created with Inkscape (http://www.inkscape.org/) -->

<svg
   xmlns:dc="http://purl.org/dc/elements/1.1/"
   xmlns:cc="http://creativecommons.org/ns#"
   xmlns:rdf="http://www.w3.org/1999/02/22-rdf-syntax-ns#"
   xmlns:svg="http://www.w3.org/2000/svg"
   xmlns="http://www.w3.org/2000/svg"
   xmlns:sodipodi="http://sodipodi.sourceforge.net/DTD/sodipodi-0.dtd"
   xmlns:inkscape="http://www.inkscape.org/namespaces/inkscape"
   width="688.125"
   height="211.09375"
   id="svg4333"
   version="1.1"
   inkscape:version="0.48.1 r9760"
   sodipodi:docname="New document 34">
  <defs
     id="defs4335" />
  <sodipodi:namedview
     id="base"
     pagecolor="#ffffff"
     bordercolor="#666666"
     borderopacity="1.0"
     inkscape:pageopacity="0.0"
     inkscape:pageshadow="2"
     inkscape:zoom="0.98994949"
     inkscape:cx="326.59375"
     inkscape:cy="-17.964144"
     inkscape:document-units="px"
     inkscape:current-layer="layer1"
     showgrid="false"
     fit-margin-top="0"
     fit-margin-left="0"
     fit-margin-right="0"
     fit-margin-bottom="0"
     inkscape:window-width="1366"
     inkscape:window-height="711"
     inkscape:window-x="0"
     inkscape:window-y="26"
     inkscape:window-maximized="1" />
  <metadata
     id="metadata4338">
    <rdf:RDF>
      <cc:Work
         rdf:about="">
        <dc:format>image/svg+xml</dc:format>
        <dc:type
           rdf:resource="http://purl.org/dc/dcmitype/StillImage" />
        <dc:title></dc:title>
      </cc:Work>
    </rdf:RDF>
  </metadata>
  <g
     inkscape:label="Layer 1"
     inkscape:groupmode="layer"
     id="layer1"
     transform="translate(-48.40625,-51.53125)">
    <path
       style="fill:none;stroke:#000000;stroke-width:1px;stroke-linecap:butt;stroke-linejoin:miter;stroke-opacity:1"
       d="m 50.507631,115.44569 2.0203,96.97465 90.913739,-1.01016 4.04061,-93.94418 z"
       id="path4160"
       inkscape:connector-curvature="0" />
    <path
       style="fill:none;stroke:#000000;stroke-width:1px;stroke-linecap:butt;stroke-linejoin:miter;stroke-opacity:1"
       d="m 52.527931,115.44569 66.670079,-39.395951 86.87312,3.03046 -57.5787,41.416261"
       id="path4162"
       inkscape:connector-curvature="0" />
    <path
       style="fill:none;stroke:#000000;stroke-width:1px;stroke-linecap:butt;stroke-linejoin:miter;stroke-opacity:1"
       d="m 205.06098,81.100509 1.01015,93.944181 -61.61931,37.37565"
       id="path4164"
       inkscape:connector-curvature="0" />
    <path
       style="fill:none;stroke:#000000;stroke-width:1px;stroke-linecap:butt;stroke-linejoin:miter;stroke-opacity:1"
       d="m 48.487321,209.38988 c 1.05643,-0.16836 10.561195,-3.94979 15.152295,-13.13198"
       id="path4182"
       inkscape:connector-curvature="0" />
    <path
       style="fill:none;stroke:#000000;stroke-width:1px;stroke-linecap:butt;stroke-linejoin:miter;stroke-opacity:1"
       d="m 78.791906,184.13607 c 5.40212,-4.106 7.50283,-9.23395 10.10152,-13.13199"
       id="path4184"
       inkscape:connector-curvature="0" />
    <path
       style="fill:none;stroke:#000000;stroke-width:1px;stroke-linecap:butt;stroke-linejoin:miter;stroke-opacity:1"
       d="m 100.00511,160.90256 c 2.15631,-1.27844 5.86153,-2.63168 10.10153,-11.11168"
       id="path4186"
       inkscape:connector-curvature="0" />
    <path
       style="fill:none;stroke:#000000;stroke-width:1px;stroke-linecap:butt;stroke-linejoin:miter;stroke-opacity:1"
       d="m 125.25893,98.273099 c 5.8846,14.527711 -4.45028,-13.35083 2.0203,6.060921"
       id="path4190"
       inkscape:connector-curvature="0" />
    <path
       style="fill:none;stroke:#000000;stroke-width:1px;stroke-linecap:butt;stroke-linejoin:miter;stroke-opacity:1"
       d="m 130.30969,114.43554 c 1.91497,5.70438 1.08927,7.54578 2.0203,13.13198"
       id="path4192"
       inkscape:connector-curvature="0" />
    <path
       style="fill:none;stroke:#000000;stroke-width:1px;stroke-linecap:butt;stroke-linejoin:miter;stroke-opacity:1"
       d="m 128.28938,139.68935 c 1.39059,2.63733 -0.67343,4.71405 -1.01015,7.07107"
       id="path4194"
       inkscape:connector-curvature="0" />
    <path
       style="fill:none;stroke:#000000;stroke-width:1px;stroke-linecap:butt;stroke-linejoin:miter;stroke-opacity:1"
       d="m 113.1371,145.75027 c 4.77288,-2.53963 9.20394,-3.94455 14.14213,-6.06092"
       id="path4196"
       inkscape:connector-curvature="0" />
    <path
       style="fill:none;stroke:#000000;stroke-width:1px;stroke-linecap:butt;stroke-linejoin:miter;stroke-opacity:1"
       d="m 202.03052,168.98378 -19.1929,-8.08122"
       id="path4214"
       inkscape:connector-curvature="0" />
    <path
       style="fill:none;stroke:#000000;stroke-width:1px;stroke-linecap:butt;stroke-linejoin:miter;stroke-opacity:1"
       d="m 171.22087,157.8721 c -6.78498,-0.86187 -11.86145,-1.18975 -16.16244,-6.56599"
       id="path4216"
       inkscape:connector-curvature="0" />
    <path
       style="fill:none;stroke:#000000;stroke-width:1px;stroke-linecap:butt;stroke-linejoin:miter;stroke-opacity:1"
       d="m 145.96705,147.77057 c -4.10834,-2.51577 -8.151,-3.03045 -13.13198,-3.03045"
       id="path4218"
       inkscape:connector-curvature="0" />
    <path
       style="fill:none;stroke:#000000;stroke-width:1px;stroke-linecap:butt;stroke-linejoin:miter;stroke-opacity:1"
       d="m 221.22341,129.08276 c -8.36325,-31.899641 29.03655,8.15102 44.44671,-11.11168"
       id="path4372"
       inkscape:connector-curvature="0" />
    <path
       style="fill:none;stroke:#000000;stroke-width:1px;stroke-linecap:butt;stroke-linejoin:miter;stroke-opacity:1"
       d="m 222.23356,153.32642 c 8.71071,-23.22665 32.01442,-5.81255 42.42641,-14.14214"
       id="path4374"
       inkscape:connector-curvature="0" />
    <path
       style="fill:none;stroke:#000000;stroke-width:1px;stroke-linecap:butt;stroke-linejoin:miter;stroke-opacity:1"
       d="m 380.82751,100.79848 c 2.6903,-13.249171 -30.99714,-12.7063 -53.53809,-7.071063 -57.67531,14.418833 -37.1296,108.718753 21.21321,98.994953 61.22695,-10.2045 67.11492,-92.54789 18.18274,-97.9848"
       id="path4376"
       inkscape:connector-curvature="0" />
    <path
       style="fill:none;stroke:#000000;stroke-width:1px;stroke-linecap:butt;stroke-linejoin:miter;stroke-opacity:1"
       d="m 394.96965,124.03199 c 4.89583,29.37503 -80.50402,49.12011 -102.02541,20.20305 7.95872,-3.12056 13.45398,-6.72699 20.20305,-10.10152"
       id="path4378"
       inkscape:connector-curvature="0" />
    <path
       style="fill:none;stroke:#000000;stroke-width:1px;stroke-linecap:butt;stroke-linejoin:miter;stroke-opacity:1"
       d="m 324.25897,130.09291 c 5.59188,-0.54321 10.03195,-2.4906 15.15229,-5.05076"
       id="path4380"
       inkscape:connector-curvature="0" />
    <path
       style="fill:none;stroke:#000000;stroke-width:1px;stroke-linecap:butt;stroke-linejoin:miter;stroke-opacity:1"
       d="m 349.51278,125.04215 c 7.83615,0.24212 15.19103,0.3238 22.22336,-2.02031"
       id="path4382"
       inkscape:connector-curvature="0" />
    <path
       style="fill:none;stroke:#000000;stroke-width:1px;stroke-linecap:butt;stroke-linejoin:miter;stroke-opacity:1"
       d="m 382.84781,122.01169 c 3.37892,2.3572 1.13252,0.33975 10.10153,3.03046"
       id="path4384"
       inkscape:connector-curvature="0" />
    <path
       style="fill:none;stroke:#000000;stroke-width:1px;stroke-linecap:butt;stroke-linejoin:miter;stroke-opacity:1"
       d="m 417.193,140.19443 c -0.26364,-25.84434 24.00324,0.24043 36.36549,-12.12183"
       id="path4386"
       inkscape:connector-curvature="0" />
    <path
       style="fill:none;stroke:#000000;stroke-width:1px;stroke-linecap:butt;stroke-linejoin:miter;stroke-opacity:1"
       d="m 417.193,170.49901 c 6.6462,-23.25326 23.63299,-1.50951 35.35534,-16.16244"
       id="path4388"
       inkscape:connector-curvature="0" />
    <path
       style="fill:none;stroke:#000000;stroke-width:1px;stroke-linecap:butt;stroke-linejoin:miter;stroke-opacity:1"
       d="m 482.85292,186.66145 49.49747,-93.944185 52.52793,91.923885 z"
       id="path4390"
       inkscape:connector-curvature="0" />
    <path
       style="fill:none;stroke:#000000;stroke-width:1px;stroke-linecap:butt;stroke-linejoin:miter;stroke-opacity:1"
       d="m 488.91383,184.64115 c 2.05802,-1.66507 3.59787,-3.08033 11.11168,-9.09138"
       id="path4392"
       inkscape:connector-curvature="0" />
    <path
       style="fill:none;stroke:#000000;stroke-width:1px;stroke-linecap:butt;stroke-linejoin:miter;stroke-opacity:1"
       d="m 508.10673,169.48886 c 3.24846,-1.00614 2.61041,-3.32551 12.12183,-8.08122"
       id="path4394"
       inkscape:connector-curvature="0" />
    <path
       style="fill:none;stroke:#000000;stroke-width:1px;stroke-linecap:butt;stroke-linejoin:miter;stroke-opacity:1"
       d="m 530.33009,156.35687 12.12183,6.06092"
       id="path4396"
       inkscape:connector-curvature="0" />
    <path
       style="fill:none;stroke:#000000;stroke-width:1px;stroke-linecap:butt;stroke-linejoin:miter;stroke-opacity:1"
       d="m 551.54329,165.44825 c 2.99404,3.26996 5.61767,3.12093 9.09137,5.05076"
       id="path4398"
       inkscape:connector-curvature="0" />
    <path
       style="fill:none;stroke:#000000;stroke-width:1px;stroke-linecap:butt;stroke-linejoin:miter;stroke-opacity:1"
       d="m 568.71588,176.55993 c 1.57579,2.09735 4.98982,2.34686 15.15229,4.04061"
       id="path4400"
       inkscape:connector-curvature="0" />
    <path
       style="fill:none;stroke:#000000;stroke-width:1px;stroke-linecap:butt;stroke-linejoin:miter;stroke-opacity:1"
       d="m 529.31993,156.35687 c 4.32565,-5.45382 -0.33316,-0.99949 -3.03045,-9.09137"
       id="path4402"
       inkscape:connector-curvature="0" />
    <path
       style="fill:none;stroke:#000000;stroke-width:1px;stroke-linecap:butt;stroke-linejoin:miter;stroke-opacity:1"
       d="m 528.30978,135.14367 c 3.38884,-3.51204 0.11158,-1.11574 1.01015,-10.10152"
       id="path4404"
       inkscape:connector-curvature="0" />
    <path
       style="fill:none;stroke:#000000;stroke-width:1px;stroke-linecap:butt;stroke-linejoin:miter;stroke-opacity:1"
       d="m 529.31993,117.97108 c 3.0722,-6.03924 -0.64438,2.57752 2.02031,-8.08122"
       id="path4406"
       inkscape:connector-curvature="0" />
    <path
       style="fill:none;stroke:#000000;stroke-width:1px;stroke-linecap:butt;stroke-linejoin:miter;stroke-opacity:1"
       d="m 531.34024,105.84925 c 0.67262,-2.80511 0.56628,-2.38754 2.0203,-11.11168"
       id="path4408"
       inkscape:connector-curvature="0" />
    <path
       style="fill:none;stroke:#000000;stroke-width:1px;stroke-linecap:butt;stroke-linejoin:miter;stroke-opacity:1"
       d="m 571.74634,137.16398 c 3.4045,-21.75764 18.06185,1.72388 35.35534,-4.04061"
       id="path4410"
       inkscape:connector-curvature="0" />
    <path
       style="fill:none;stroke:#000000;stroke-width:1px;stroke-linecap:butt;stroke-linejoin:miter;stroke-opacity:1"
       d="m 580.83771,148.27565 c 2.94495,-15.06655 14.8517,4.88718 27.27412,-5.05076"
       id="path4412"
       inkscape:connector-curvature="0" />
    <path
       style="fill:none;stroke:#000000;stroke-width:1px;stroke-linecap:butt;stroke-linejoin:miter;stroke-opacity:1"
       d="m 624.27427,176.55993 73.74114,2.0203 37.37564,-41.41625 -74.75129,2.0203 z"
       id="path4414"
       inkscape:connector-curvature="0" />
    <path
       style="fill:none;stroke:#000000;stroke-width:1px;stroke-linecap:butt;stroke-linejoin:miter;stroke-opacity:1"
       d="m 627.30473,177.57008 54.54824,82.83251 14.14213,-79.80205"
       id="path4416"
       inkscape:connector-curvature="0" />
    <path
       style="fill:none;stroke:#000000;stroke-width:1px;stroke-linecap:butt;stroke-linejoin:miter;stroke-opacity:1"
       d="M 735.39105,140.19443 685.89358,262.42289"
       id="path4418"
       inkscape:connector-curvature="0" />
    <path
       style="fill:none;stroke:#000000;stroke-width:1px;stroke-linecap:butt;stroke-linejoin:miter;stroke-opacity:1"
       d="m 660.63976,139.18428 c 1.42254,6.01057 3.16481,10.50458 5.05077,16.16244"
       id="path4420"
       inkscape:connector-curvature="0" />
    <path
       style="fill:none;stroke:#000000;stroke-width:1px;stroke-linecap:butt;stroke-linejoin:miter;stroke-opacity:1"
       d="m 668.72099,171.50916 c 0.22804,5.21255 0.62481,7.93537 2.0203,12.12183"
       id="path4422"
       inkscape:connector-curvature="0" />
    <path
       style="fill:none;stroke:#000000;stroke-width:1px;stroke-linecap:butt;stroke-linejoin:miter;stroke-opacity:1"
       d="m 671.75144,195.75282 c 2.03036,3.65155 2.76751,6.28221 4.04061,10.10153"
       id="path4424"
       inkscape:connector-curvature="0" />
    <path
       style="fill:none;stroke:#000000;stroke-width:1px;stroke-linecap:butt;stroke-linejoin:miter;stroke-opacity:1"
       d="m 677.81236,217.97618 c -0.007,3.87543 0.56683,4.53464 1.01015,8.08122"
       id="path4426"
       inkscape:connector-curvature="0" />
    <path
       style="fill:none;stroke:#000000;stroke-width:1px;stroke-linecap:butt;stroke-linejoin:miter;stroke-opacity:1"
       d="m 683.87327,245.2503 c 1.38134,4.12762 1.01016,7.79602 1.01016,12.12183"
       id="path4428"
       inkscape:connector-curvature="0" />
    <path
       style="fill:none;stroke:#000000;stroke-width:1px;stroke-linecap:butt;stroke-linejoin:miter;stroke-opacity:1"
       d="M 623.26412,177.57008 668.72099,53.321315 694.98495,176.55993"
       id="path4430"
       inkscape:connector-curvature="0" />
    <path
       style="fill:none;stroke:#000000;stroke-width:1px;stroke-linecap:butt;stroke-linejoin:miter;stroke-opacity:1"
       d="M 732.3606,138.17413 670.74129,53.321315 c -1.40445,6.030999 -1.01015,12.937884 -1.01015,18.182746"
       id="path4432"
       inkscape:connector-curvature="0" />
    <path
       style="fill:none;stroke:#000000;stroke-width:1px;stroke-linecap:butt;stroke-linejoin:miter;stroke-opacity:1"
       d="m 663.67022,88.676654 c 0.7247,3.842671 -0.41504,6.530882 -1.01015,10.101526"
       id="path4434"
       inkscape:connector-curvature="0" />
    <path
       style="fill:none;stroke:#000000;stroke-width:1px;stroke-linecap:butt;stroke-linejoin:miter;stroke-opacity:1"
       d="m 661.64992,112.92032 c -1.54012,5.03385 -0.83516,5.09055 0,10.10152"
       id="path4436"
       inkscape:connector-curvature="0" />
    <path
       style="fill:none;stroke:#000000;stroke-width:1px;stroke-linecap:butt;stroke-linejoin:miter;stroke-opacity:1"
       d="m 663.67022,135.14367 c -0.67343,1.68359 -1.34687,3.36718 -2.0203,5.05076"
       id="path4438"
       inkscape:connector-curvature="0" />
  </g>
</svg>
